<?xml version="1.0" encoding="utf-8"?>
<!-- Generator: Adobe Illustrator 25.2.0, SVG Export Plug-In . SVG Version: 6.00 Build 0)  -->
<svg version="1.1" id="Laag_1" xmlns="http://www.w3.org/2000/svg" xmlns:xlink="http://www.w3.org/1999/xlink" x="0px" y="0px"
	 viewBox="0 0 196 200" style="enable-background:new 0 0 196 200;" xml:space="preserve">
<style type="text/css">
	.st0{fill:#FFFFFF;}
</style>
<path class="st0" d="M125.7,0c0.9,0,1.1,0,1.8,0.2c0.5,0.1,1.1,0.3,1.5,0.6c0.4,0.2,0.9,0.5,1.1,0.7s0.6,0.5,0.9,0.8
	c0.2,0.3,0.5,0.6,0.7,0.8c0.1,0.2,0.4,0.6,0.5,0.9s0.3,0.8,0.4,1.2c0.1,0.3,0.2,0.9,0.3,1.3c0.1,0.5,0.1,0.9,0,1.4
	c0,0.4-0.2,1-0.3,1.3c-0.1,0.3-0.3,0.9-0.5,1.2c-0.2,0.3-0.5,0.8-0.7,1.1c-0.2,0.3-0.6,0.7-0.8,0.9c-0.2,0.2-0.7,0.5-1,0.7
	c-0.3,0.2-0.9,0.4-1.2,0.6c-0.3,0.1-0.9,0.3-1.1,0.3c-0.3,0.1-0.8,0.1-1.2,0.1c-0.4,0-1,0-1.4,0c-0.4-0.1-1-0.2-1.3-0.3
	c-0.3-0.1-0.8-0.3-1-0.4c-0.2-0.1-0.7-0.4-1-0.6c-0.3-0.2-0.8-0.6-1.1-0.9c-0.3-0.3-0.7-0.8-0.9-1.1c-0.2-0.3-0.5-0.8-0.6-1.1
	c-0.1-0.3-0.3-0.8-0.4-1.1c-0.1-0.5-0.1-0.8-0.1-1.7s0-1.2,0.1-1.7c0.1-0.3,0.3-0.8,0.4-1.1s0.4-0.8,0.6-1.1
	c0.2-0.3,0.6-0.8,0.9-1.1c0.3-0.3,0.8-0.7,1.2-0.9c0.3-0.2,0.9-0.5,1.2-0.6c0.3-0.1,0.9-0.3,1.2-0.4C124.5,0.1,125,0,125.7,0z
	 M123.7,3.2c-0.3,0.2-0.7,0.4-1,0.7c-0.3,0.3-0.5,0.6-0.7,1c-0.1,0.3-0.3,0.7-0.4,1c-0.1,0.3-0.1,0.8-0.1,1.1c0,0.5,0,0.8,0.1,1.2
	c0.1,0.3,0.3,0.7,0.4,0.9c0.1,0.2,0.4,0.7,0.7,0.9c0.3,0.3,0.7,0.6,0.9,0.7c0.2,0.1,0.6,0.3,0.8,0.3c0.2,0.1,0.6,0.1,0.9,0.2
	c0.4,0,0.7,0,1.1-0.1c0.3-0.1,0.8-0.2,1-0.3c0.3-0.1,0.6-0.4,0.8-0.6c0.2-0.2,0.5-0.6,0.7-0.8c0.2-0.3,0.3-0.6,0.4-0.8
	s0.2-0.6,0.2-0.9c0-0.3,0.1-0.7,0-1c0-0.3-0.1-0.7-0.1-0.9c-0.1-0.2-0.2-0.6-0.4-0.9c-0.2-0.3-0.4-0.7-0.8-1c-0.4-0.4-0.7-0.6-1-0.8
	c-0.3-0.1-0.6-0.3-0.9-0.3c-0.2-0.1-0.7-0.1-1-0.1c-0.3,0-0.8,0-1,0.1C124.4,2.9,124,3.1,123.7,3.2z M184.4,0c0.7,0,1.1,0,1.7,0.1
	c0.4,0.1,0.9,0.2,1.2,0.3c0.3,0.1,0.7,0.3,0.9,0.4s0.6,0.4,0.8,0.6c0.2,0.2,0.5,0.4,0.8,0.6l-1.9,2.2l-0.4-0.3
	c-0.2-0.2-0.6-0.5-0.9-0.6c-0.3-0.1-0.6-0.3-0.9-0.4c-0.3-0.1-0.7-0.2-1-0.2c-0.3,0-0.8,0-1,0c-0.3,0-0.7,0.2-1,0.3
	c-0.4,0.2-0.6,0.4-1,0.7c-0.3,0.3-0.5,0.6-0.7,1c-0.1,0.3-0.3,0.7-0.4,1c-0.1,0.3-0.1,0.7-0.1,1.2c0,0.6,0,0.9,0.2,1.3
	c0.1,0.3,0.3,0.8,0.4,1c0.1,0.2,0.4,0.6,0.5,0.7s0.5,0.4,0.7,0.6c0.2,0.1,0.6,0.3,0.8,0.4c0.2,0.1,0.6,0.1,0.8,0.2c0.2,0,0.6,0,1,0
	c0.3,0,0.8-0.2,1-0.2c0.2-0.1,0.6-0.3,0.8-0.4c0.2-0.2,0.6-0.4,1.1-0.8l1.9,1.9l-0.5,0.5c-0.3,0.3-0.7,0.6-0.9,0.8s-0.7,0.4-0.9,0.5
	c-0.3,0.1-0.7,0.3-1,0.4c-0.3,0.1-0.9,0.2-1.3,0.2c-0.4,0-1,0.1-1.4,0c-0.4,0-0.9-0.1-1.2-0.1c-0.3-0.1-0.7-0.2-0.9-0.2
	c-0.2-0.1-0.6-0.2-0.8-0.4s-0.6-0.4-0.9-0.5c-0.2-0.2-0.6-0.5-0.9-0.7c-0.2-0.2-0.6-0.6-0.7-0.9c-0.2-0.3-0.5-0.7-0.6-1.1
	c-0.2-0.3-0.4-0.9-0.4-1.2c-0.1-0.3-0.2-0.9-0.2-1.2c-0.1-0.5-0.1-0.9,0-1.4c0-0.4,0.2-1,0.3-1.4c0.1-0.3,0.3-0.9,0.5-1.2
	s0.5-0.8,0.7-1c0.2-0.3,0.5-0.7,0.8-0.9c0.2-0.2,0.7-0.6,0.9-0.7c0.3-0.2,0.7-0.4,1-0.5c0.3-0.1,0.8-0.3,1.1-0.4s0.7-0.2,0.7-0.2
	C183.3,0,183.8,0,184.4,0z M57,0.1l2.8,0l2.9,6.8c1.6,3.8,2.9,6.9,2.9,6.9c0,0.1-0.4,0.1-3.1,0.1l-1.2-3h-5.8l-1.2,3l-1.5,0
	c-1,0-1.5,0-1.5,0c0-0.1-1.7-0.1-9.6-0.1V0.2l2.9,0l0,10.9h6.8V12c0,0.5,0,0.9,0,0.9s1.2-2.8,2.6-6.2c1.4-3.4,2.6-6.3,2.7-6.4
	L57,0.1z M56.7,8.1c0,0,0.8,0,1.8,0l1.8,0c-1.3-3.3-1.8-4.2-1.8-4.2c0,0-0.5,1-1,2.1C57,7.1,56.6,8.1,56.7,8.1z M70.5,0.1
	c0.3,0,0.8,0,1.2,0.1c0.3,0,0.9,0.2,1.2,0.3c0.3,0.1,0.8,0.3,1.2,0.4c0.3,0.2,0.8,0.4,1.6,1l-0.5,0.8c-0.3,0.4-0.6,1-1,1.5l-0.4-0.3
	c-0.2-0.1-0.6-0.4-0.9-0.5C72.5,3.2,72,3,71.8,3c-0.3-0.1-0.7-0.1-0.9-0.2c-0.3,0-0.7,0-0.9,0c-0.2,0-0.5,0.2-0.6,0.2
	c-0.1,0.1-0.3,0.2-0.4,0.3c-0.1,0.1-0.2,0.3-0.2,0.5c0,0.2,0,0.4,0.1,0.6c0.1,0.1,0.2,0.3,0.4,0.5c0.2,0.1,0.5,0.3,0.7,0.4
	s0.8,0.3,1.3,0.4c0.5,0.1,1.2,0.3,1.5,0.4c0.4,0.1,0.9,0.3,1.2,0.5s0.7,0.4,0.9,0.5c0.2,0.2,0.5,0.5,0.7,0.7
	c0.2,0.3,0.4,0.7,0.4,0.9C76,9.2,76,9.5,76,10c0,0.4,0,0.9-0.1,1.1c-0.1,0.2-0.2,0.6-0.3,0.9c-0.1,0.3-0.4,0.6-0.7,0.9
	c-0.3,0.3-0.7,0.6-1,0.7c-0.3,0.1-0.8,0.3-1.2,0.4c-0.5,0.1-0.9,0.2-1.4,0.2c-0.6,0-1,0-1.5-0.1c-0.4-0.1-1-0.2-1.3-0.3
	c-0.3-0.1-0.8-0.3-1.1-0.4c-0.3-0.1-0.8-0.4-1.1-0.6s-0.6-0.5-0.8-0.6c-0.2-0.2-0.2-0.3-0.1-0.4c0.1-0.1,0.4-0.5,0.8-1
	c0.4-0.5,0.8-0.9,0.8-0.9c0,0,0.3,0.2,0.5,0.4s0.8,0.5,1.1,0.7c0.3,0.2,0.8,0.3,1.1,0.4c0.4,0.1,0.8,0.1,1.3,0.1c0.4,0,0.8,0,0.9,0
	c0.1,0,0.3-0.1,0.4-0.2c0.1-0.1,0.3-0.2,0.5-0.4c0.1-0.1,0.2-0.3,0.3-0.5c0-0.1,0-0.4,0-0.5c0-0.2-0.2-0.3-0.3-0.5
	c-0.1-0.1-0.4-0.3-0.6-0.4c-0.2-0.1-0.9-0.3-1.5-0.5C70.1,8.3,69.3,8.1,69,8c-0.3-0.1-0.8-0.3-1.1-0.5c-0.4-0.2-0.7-0.4-1-0.7
	c-0.3-0.3-0.5-0.6-0.7-0.9c-0.1-0.2-0.2-0.6-0.3-0.8c0-0.2-0.1-0.7-0.1-1c0-0.3,0-0.8,0.1-1C66,3,66.1,2.5,66.3,2.3
	C66.4,2,66.7,1.6,67,1.4c0.3-0.2,0.7-0.5,0.9-0.6c0.2-0.1,0.6-0.3,0.8-0.3c0.2-0.1,0.6-0.2,0.8-0.2C69.7,0.1,70.2,0.1,70.5,0.1z
	 M152.8,0.1h2.8l2.9,6.9c1.6,3.8,2.9,6.9,2.9,6.9S160.8,14,160,14c-1.2,0-1.5,0-1.6-0.1c0-0.1-0.3-0.8-1.3-3l-5.8,0l-1.2,3l-1.5,0
	c-1.2,0-1.5,0-1.5-0.1c0-0.1,1.3-3.2,2.9-6.9L152.8,0.1z M152.3,8.1c0,0,0.8,0,1.8,0l1.8,0c-1.4-3.3-1.8-4.3-1.8-4.3
	s-0.4,0.9-0.9,2.2C152.7,7.1,152.3,8.1,152.3,8.1z M6.2,0.1h2.9v5.5h5.6V0.1h2.9v13.8h-2.9V8.4H9.1V14H6.2V0.1z M19.5,0.1h10.3v2.7
	h-7.4v2.8H29l0,2.7l-6.5,0v2.9h7.4V14H19.5V0.1z M31.1,0.1h2.9v10.9H41l0,2.7l-9.8,0V0.1z M83.8,0.1l1.8,4.8c1,2.6,1.8,4.8,1.8,4.7
	c0,0,0.8-2.1,1.8-4.7c1-2.5,1.7-4.7,1.8-4.7c0-0.1,0.2-0.1,1.7-0.1c1.5,0,1.6,0,1.6,0.1c0,0.1-1.3,3.2-5.4,13.8L86,14l-2.8-6.9
	c-1.5-3.8-2.8-6.9-2.8-6.9C80.4,0.1,81.2,0.1,83.8,0.1z M94.8,0.1h10.3v2.7h-7.3v2.8h6.4v2.7h-6.4v2.9h7.4V14H94.8V0.1z M106.4,0.1
	h3.3c1.9,0,3.6,0,3.9,0.1c0.3,0,0.9,0.2,1.2,0.3c0.3,0.1,0.9,0.4,1.1,0.5c0.3,0.2,0.6,0.5,0.8,0.7c0.2,0.2,0.4,0.5,0.5,0.8
	c0.1,0.2,0.3,0.6,0.3,0.8c0.1,0.3,0.1,0.7,0.1,1.3c0,0.5,0,1-0.1,1.3c-0.1,0.2-0.2,0.6-0.3,0.9c-0.2,0.4-0.4,0.7-0.8,1.1
	c-0.4,0.4-0.7,0.7-1.6,1.1l1.6,2.4c0.9,1.3,1.6,2.4,1.6,2.4s-0.8,0.1-3.4,0.1l-2.9-4.3l-2.3,0v4.4h-3V0.1z M109.4,6.9
	c2.3,0,3,0,3-0.1c0,0,0.2-0.1,0.4-0.1c0.2,0,0.6-0.1,0.8-0.2c0.2-0.1,0.5-0.3,0.6-0.4c0.1-0.1,0.3-0.4,0.4-0.6
	c0.1-0.2,0.1-0.5,0.1-0.8c0-0.4-0.1-0.6-0.2-0.9c-0.2-0.3-0.3-0.4-0.7-0.6L113.2,3l-3.8,0L109.4,6.9z M134.2,0.1h2.8l3.1,4.1
	c1.7,2.3,3.2,4.1,3.2,4.1c0,0,0.1-1.9,0.1-8.2h2.9v13.8h-2.6l-6.6-8.7l0,8.7h-2.9V0.1z M166.5,0.1h10.4v2.7h-7.4v2.9h6.6v2.7h-6.6
	v5.3h-2.9V0.1z M44.3,30.2c0,0,8,11.3,35.2,50.4l0,0.3c0,0.2-1.1,19.1-2.4,42.1s-2.4,41.9-2.5,42.7l-20.6-30.3
	c-11.3-16.6-20.6-30.3-20.7-30.3c-0.1-0.1-0.2-0.1-0.4-0.2c-0.2-0.1-1.3-0.1-3.2-0.1c-1.6,0-3.5-0.1-4.1-0.1s-1.4-0.1-1.5-0.1
	c-0.2,0-0.5-0.1-0.8-0.2c-0.3-0.1-0.8-0.3-1-0.4c-0.3-0.2-0.8-0.5-1.1-0.7c-0.3-0.2-0.7-0.6-0.9-0.8c-0.2-0.2-0.5-0.6-0.7-0.9
	c-0.2-0.3-0.5-0.8-0.7-1.2s-0.4-0.9-0.6-1.3c-0.1-0.4-0.3-1-0.5-1.5c-0.1-0.4-0.3-1.1-0.3-1.5c-0.1-0.4-0.2-1.3-0.3-2.2
	s-0.3-2.6-0.4-4c-0.1-1.3-0.4-3.4-0.5-4.6c-0.1-1.2-0.3-2.8-0.4-3.5c-0.1-0.8-0.2-1.6-0.3-2c-0.1-0.3-0.2-0.9-0.4-1.4
	c-0.1-0.4-0.4-1.1-0.6-1.5c-0.2-0.4-0.6-1.1-0.8-1.4c-0.2-0.4-0.6-0.8-0.7-1c-0.2-0.2-0.6-0.6-0.8-0.9c-0.3-0.3-0.8-0.8-1.1-1.1
	c-0.4-0.3-1-0.8-1.5-1.1c-0.5-0.3-1.3-0.8-1.8-1c-0.5-0.3-1.3-0.6-1.7-0.8s-1.2-0.4-1.6-0.5c-0.4-0.1-1.1-0.3-1.5-0.3
	c-0.4-0.1-1.3-0.2-3.2-0.3V61h7c3.8,0,11.6,0,17.2,0s10.8,0,12.8-0.1l0.2-0.2c0.1-0.2,0.2-0.2,0.1-0.4c0-0.1-0.1-0.3-0.2-0.4
	c-0.1-0.1-2.7-1.7-5.8-3.6c-3.1-1.9-5.7-3.5-5.7-3.5c0,0-2.5,1.6-5.4,3.6c-4.1,2.7-5.5,3.7-5.8,4c-0.3,0.3-0.4,0.4-0.4,0.3
	c0,0,0-2,0-8.8l0.2-0.6c0.1-0.3,0.3-0.8,0.5-1c0.2-0.3,0.5-0.6,0.7-0.9c0.2-0.2,0.6-0.5,0.8-0.7c0.2-0.1,0.5-0.3,0.7-0.4
	c0.2-0.1,4-1.8,8.5-3.8c4.5-2,9.6-4.2,11.5-5c3-1.3,3.3-1.5,3.6-1.7c0.2-0.2,0.4-0.5,0.5-0.8c0.1-0.3,0.9-1.9,1.7-3.7
	C43.6,31.7,44.3,30.2,44.3,30.2z M151.8,30.3c0,0,0.7,1.6,1.5,3.4c0.8,1.8,1.6,3.5,1.7,3.7s0.3,0.5,0.5,0.7c0.2,0.2,1.6,0.8,9.4,4.3
	c5,2.2,10.3,4.5,11.7,5.1c1.5,0.7,2.7,1.2,3,1.4c0.3,0.2,0.7,0.5,0.9,0.7c0.2,0.2,0.6,0.6,0.7,0.8c0.2,0.3,0.4,0.7,0.7,1.4l0.1,9.3
	l14,0l0,7.5l-1.1,0.1c-0.6,0-1.3,0.1-1.7,0.2c-0.4,0.1-1,0.2-1.3,0.3c-0.4,0.1-0.9,0.3-1.2,0.3c-0.3,0.1-0.9,0.3-1.3,0.5
	c-0.4,0.2-1.1,0.5-1.6,0.8c-0.5,0.3-1.2,0.7-1.6,0.9c-0.4,0.3-1,0.7-1.3,1c-0.4,0.3-1,0.9-1.4,1.3c-0.4,0.4-1,1.1-1.3,1.5
	c-0.3,0.4-0.7,1.1-0.9,1.6c-0.3,0.5-0.6,1.3-0.7,1.7c-0.1,0.4-0.3,1-0.4,1.3c-0.1,0.3-0.3,1.7-0.4,2.9c-0.2,1.3-0.4,3.3-0.5,4.6
	c-0.1,1.3-0.4,3.6-0.5,5.2c-0.2,1.6-0.3,3.2-0.4,3.6s-0.2,1-0.3,1.4c-0.1,0.4-0.3,1.1-0.5,1.5c-0.1,0.4-0.4,0.9-0.6,1.3
	c-0.2,0.3-0.5,0.9-0.7,1.2c-0.2,0.3-0.7,0.9-0.9,1.2c-0.3,0.3-0.8,0.7-1.1,0.9c-0.3,0.2-0.8,0.5-1.1,0.6c-0.3,0.1-0.8,0.3-1.1,0.3
	c-0.3,0.1-1.3,0.1-2.1,0.2c-0.8,0-2.5,0.1-3.8,0.1c-1.3,0-2.5,0-2.8,0.1c-0.3,0-0.6,0.1-0.7,0.1c-0.2,0.1-3.2,4.5-41.4,60.7
	l-0.1-0.5c0-0.3-1.1-19.2-2.4-42.2c-1.3-22.9-2.4-41.9-2.4-42.5l14.9-21.3c8.2-11.7,16.1-23,17.6-25.2
	C150.5,32,151.7,30.2,151.8,30.3z M158.7,60c-0.1,0.1-0.1,0.2-0.1,0.4c0,0.2,0,0.3,0.1,0.4c0.1,0.1,0.3,0.1,0.7,0.2
	c0.3,0,5.5,0.1,11.6,0.1l11,0c-0.2-0.3-0.3-0.5-0.4-0.7c-0.1-0.1-2.7-1.9-5.7-3.9c-3-2-5.5-3.7-5.5-3.7c0,0-2.6,1.6-5.7,3.5
	C161.4,58.3,158.8,59.9,158.7,60z M0,73.2h0.6c0.3,0,0.9,0.1,1.3,0.1s1.1,0.2,1.5,0.3c0.4,0.1,1.1,0.3,1.5,0.5
	c0.4,0.2,1,0.4,1.3,0.6c0.3,0.2,0.8,0.5,1.1,0.7c0.3,0.2,0.8,0.7,1.2,1c0.3,0.3,0.8,0.9,1.1,1.3c0.2,0.3,0.5,0.8,0.6,1
	c0.1,0.2,0.4,0.7,0.5,1.2c0.2,0.4,0.4,1,0.5,1.3c0.1,0.3,0.3,1.3,0.4,2.2c0.2,0.9,0.4,2.3,0.5,3.1c0.1,0.8,0.2,1.9,0.3,2.6
	c0.1,0.6,0.1,1.9,0.2,2.8c0,0.9,0.2,2.4,0.3,3.3c0.1,0.9,0.3,2,0.3,2.5c0.1,0.5,0.3,1.3,0.4,1.7c0.1,0.4,0.3,1.1,0.5,1.4
	c0.1,0.4,0.4,1,0.6,1.4c0.2,0.4,0.5,1,0.7,1.3c0.2,0.3,0.6,0.8,0.8,1c0.3,0.3,0.4,0.5,0.4,0.5S12.7,105,0,105V73.2z M196,73.2V105
	h-8.2c-4.5,0-8.2,0-8.2,0c0,0,0.1-0.3,0.4-0.5c0.2-0.3,0.6-0.7,0.8-1c0.2-0.3,0.6-0.9,0.8-1.3c0.2-0.4,0.5-1,0.6-1.4
	c0.1-0.4,0.3-1,0.5-1.4c0.1-0.4,0.3-1.2,0.4-1.7c0.1-0.5,0.3-1.6,0.4-2.5c0.1-0.9,0.2-2.3,0.3-3.3c0-0.9,0.1-2.3,0.2-3.2
	c0.1-0.8,0.2-2.1,0.3-2.8c0.1-0.7,0.3-1.9,0.4-2.6c0.1-0.7,0.3-1.5,0.4-1.9c0.1-0.3,0.2-0.8,0.3-1.2c0.1-0.3,0.3-0.8,0.5-1.1
	c0.1-0.3,0.5-0.9,0.8-1.3c0.3-0.4,0.8-1,1.1-1.4c0.3-0.3,0.9-0.8,1.1-1c0.3-0.2,0.8-0.6,1.2-0.8c0.3-0.2,0.9-0.5,1.2-0.6
	c0.3-0.1,0.9-0.3,1.3-0.4c0.4-0.1,1-0.3,1.3-0.3c0.3,0,0.7-0.1,0.8-0.1C194.6,73.2,195,73.2,196,73.2z M86.7,90.7
	c0,0,2.6,3.5,5.7,7.7c3.1,4.2,5.6,7.7,5.6,7.7s2.3-3.1,5.1-7c2.8-3.8,5.3-7.3,5.6-7.7c0.3-0.4,0.5-0.7,0.5-0.7c0,0,0.2,3.4,0.5,7.5
	c0.2,4.1,0.4,7.6,0.4,8.1H85.9v-0.3c0-0.2,0.2-3.5,0.3-7.3c0.2-3.8,0.4-7.2,0.4-7.5C86.7,90.9,86.7,90.6,86.7,90.7z M85.5,113.6
	h25.1v0.3c0,0.2,0.1,1.6,0.1,3.2c0.1,1.6,0.2,3.1,0.2,3.9H85.1l0-0.5c0-0.3,0.1-1.8,0.2-3.4c0.1-1.6,0.2-3.1,0.2-3.2V113.6z
	 M111.2,128.4v0.2c0,0.1,0.1,1.8,0.4,7.3H84.4l0.2-3.7c0.1-2.1,0.2-3.8,0.2-3.8C84.8,128.4,90.7,128.4,111.2,128.4z M83.9,143.3H112
	v0.2c0,0.1,0.1,1.8,0.2,3.7c0.1,1.9,0.2,3.5,0.2,3.5c0,0-6.5,0-14.4,0s-14.4,0-14.4-0.1s0.1-1.6,0.2-3.5c0.1-1.9,0.2-3.6,0.2-3.7
	V143.3z M112.8,158.2l0,0.5c0,0.3,0.2,4.4,0.5,9.2c0.3,4.7,0.4,8.7,0.4,8.9c0,0.2-1.8,2.8-7.9,11.7c-4.3,6.3-7.9,11.5-7.9,11.4
	c0,0-3.4-5-7.6-11.1c-4.2-6.1-7.7-11.3-8.1-11.8l0.5-9.3c0.3-5.1,0.5-9.3,0.5-9.4C83.3,158.2,86.3,158.2,112.8,158.2z"/>
</svg>
