<?xml version="1.0" encoding="utf-8"?>
<!-- Generator: Adobe Illustrator 25.2.0, SVG Export Plug-In . SVG Version: 6.00 Build 0)  -->
<svg version="1.1" id="Laag_2" xmlns="http://www.w3.org/2000/svg" xmlns:xlink="http://www.w3.org/1999/xlink" x="0px" y="0px"
	 viewBox="0 0 283.5 283.5" style="enable-background:new 0 0 283.5 283.5;" xml:space="preserve">
<style type="text/css">
	.st0{fill:#C7A642;}
	.st1{fill:#050606;}
	.st2{fill:#2B7F3B;}
	.st3{fill:#FFFFFF;}
	.st4{fill:#C63028;}
	.st5{fill:#D7B428;}
</style>
<ellipse class="st0" cx="141.7" cy="141.8" rx="71.5" ry="110.2"/>
<ellipse class="st1" cx="141.7" cy="141.7" rx="67.4" ry="105.6"/>
<g id="Flag">
	<rect x="85.3" y="103.9" class="st2" width="37.6" height="4.2"/>
	<rect x="122.9" y="103.9" class="st3" width="37.6" height="4.2"/>
	<rect x="160.5" y="103.9" class="st4" width="37.6" height="4.2"/>
</g>
<g id="Stars">
	<polygon class="st5" points="153,60.6 145.3,60.6 142.1,52.1 138.8,60.6 131.1,60.6 137.5,66.3 135.1,74.7 142.1,69.9 149.1,74.7 
		146.7,66.3 	"/>
	<g>
		<polygon class="st5" points="190.7,80.8 183,80.8 179.8,72.3 176.5,80.8 168.8,80.8 175.2,86.5 172.7,94.9 179.8,90.1 186.8,94.9 
			184.3,86.5 		"/>
		<polygon class="st5" points="114.7,80.8 107,80.8 103.7,72.3 100.4,80.8 92.8,80.8 99.1,86.5 96.7,94.9 103.7,90.1 110.7,94.9 
			108.3,86.5 		"/>
	</g>
</g>
<path id="Zebra" class="st3" d="M142.1,189.6L142.1,189.6C142.1,189.6,142.1,189.6,142.1,189.6C142.1,189.6,142.1,189.6,142.1,189.6
	L142.1,189.6c-14.9,0.5-19.1,2.8-19.1,2.8V218c0,0,4.4-11.9,6.3-10.9c0,0,0.2,11.8,0.5,12.1s-6.8,11.4-6.8,11.4v7.3
	c2.6-8.9,7.7-16,7.7-16l3,5.1l-6.5,17.9c1.9,0.7,3.9,1.2,5.8,1.6c0-0.3,2.3-18.1,2.4-17.7c0.1,0.4,3.7,2.7,3.7,2.7l-0.3,15.8
	c0.9,0.1,1.9,0.1,2.9,0.1c0.5,0,1,0,1.6-0.1l-1-13.8c2.1,2,4.5,3.2,4.5,3.2l1.7,10.1c1.4-0.2,2.8-0.5,4.1-0.8l-3-7.7
	c0,0,9.4,4.6,11,4.9c0.2-0.1,0.4-0.2,0.6-0.3v-50.5C161.1,192.4,157,190.1,142.1,189.6z M143.6,201.7c0,0,4.9-0.7,7.1,0.3
	c-1.2,1.9-2.3,5.2-2.3,5.2s-7,0-8,0.4L143.6,201.7z M152.3,213.9c0,0,0,3.5-0.3,3.5c-2.1-1.6-3.3-0.8-3.3-0.8l-1.4-3l1.1-3.6
	L152.3,213.9z M140.1,202c0,0-2.6,6-2.4,6.8c0.2,0.8-4.3,0.6-6.6,5.4C131.1,214.1,129.3,200.7,140.1,202z M137.4,210.8
	c-2.4,15.1,1.5,18.7,1.5,18.7C122.4,215.5,137.6,210.9,137.4,210.8z M139.9,225.9c0,0-1.5-5.1-1.5-6.5c0-1.4,1.8-6.2,0.7-9.3
	c0.6-2,8.4-1.4,8.4-1.4s-1.5,5.5-1,8.8C145.3,217.7,143,219.4,139.9,225.9z M143,223.2c-0.4-0.5,3.3-4.7,6.2-4.7
	c6.3,1.7,6.3,5.2,6.3,5.2C153.3,222.1,143.5,223.7,143,223.2z M156.7,230.2l-4.9,0.4c0,0-0.6-4.3-4.6-5.3
	C162.3,225,156.7,230.2,156.7,230.2z"/>
<path id="Boog" class="st3" d="M85.3,177.8c0,0,55.9-31.6,112.9,0v-4.9c-56.6-27.8-112.9,0-112.9,0V177.8z"/>
<g id="Piemonte">
	<polygon class="st3" points="100.2,115.6 104,115.6 104,160.4 100.2,161.1 	"/>
	<polygon class="st3" points="107.6,115.6 118,115.6 118.3,119.1 111.8,119.1 111.8,132.7 117.4,132 117.4,135.2 111.8,136.5 
		111.8,154.6 118.6,154.1 118.6,157.4 107.6,159.3 	"/>
	<polygon class="st3" points="121.8,115.6 125.1,115.6 129.4,128.4 133.5,115.6 137,115.6 137,155.9 133.4,156.3 133.4,128 
		130.5,137.9 128.5,137.9 125.5,128 125.5,156.8 122.1,157.2 	"/>
	<polygon class="st3" points="156.7,115.6 160,115.6 165.8,137.5 165.8,115.6 170.2,115.6 169.9,158.6 166.2,158 160.9,136.7 
		160.9,157.3 156.7,156.6 	"/>
	<polyline class="st3" points="172.9,115.6 185,115.6 185,119.3 180.9,119.3 180.9,160.5 176.5,159.3 176.5,119.3 172.9,119.3 
		172.9,115.8 	"/>
	<polygon class="st3" points="187.4,115.6 187.4,161.6 197.7,165.6 197.7,161.2 191.7,158.8 191.7,141.4 197.3,142.2 197.3,138.8 
		191.7,136.9 191.7,119.5 198,119.5 198,115.6 	"/>
	<path class="st3" d="M140.2,115.6v40.5l13.1,0.5v-40.9H140.2z M149.1,152.5h-4.6v-33.1h4.6V152.5z"/>
	<path class="st3" d="M85.5,115.6v50.7l3.6-1.2v-22.9l8.9-2.8v-23.7H85.5z M93.6,136.9l-4.6,1.6v-20.3h4.6V136.9z"/>
</g>
<g id="Calcio">
	<rect x="154.8" y="173.3" class="st3" width="1.9" height="7.3"/>
	<path class="st3" d="M164.7,173.3h-1.9c-1.4,0-2.5,1.1-2.5,2.5v2.3c0,1.4,1.1,2.5,2.5,2.5h1.9c1.4,0,2.5-1.1,2.5-2.5v-2.3
		C167.2,174.4,166,173.3,164.7,173.3z M165.2,178.3c0,0.7-0.6,1.3-1.3,1.3h-0.4c-0.7,0-1.3-0.6-1.3-1.3v-2.8c0-0.7,0.6-1.3,1.3-1.3
		h0.4c0.7,0,1.3,0.6,1.3,1.3V178.3z"/>
	<path class="st3" d="M149.2,178.6c-0.1,0.5-0.6,1-1.2,1h-0.4c-0.7,0-1.3-0.6-1.3-1.3v-2.8c0-0.7,0.6-1.3,1.3-1.3h0.4
		c0.6,0,1.1,0.5,1.2,1.1h1.9c-0.2-1.2-1.2-2-2.4-2h-1.9c-1.4,0-2.5,1.1-2.5,2.5v2.3c0,1.4,1.1,2.5,2.5,2.5h1.9
		c1.2,0,2.1-0.8,2.4-1.9H149.2z"/>
	<path class="st3" d="M121.1,178.6c-0.1,0.5-0.6,1-1.2,1h-0.4c-0.7,0-1.3-0.6-1.3-1.3v-2.8c0-0.7,0.6-1.3,1.3-1.3h0.4
		c0.6,0,1.1,0.5,1.2,1.1h1.9c-0.2-1.2-1.2-2-2.4-2h-1.9c-1.4,0-2.5,1.1-2.5,2.5v2.3c0,1.4,1.1,2.5,2.5,2.5h1.9
		c1.2,0,2.1-0.8,2.4-1.9H121.1z"/>
	<path class="st3" d="M130.1,173.3h-2l-3.1,7.3h2.3l0.5-1.4l2.8,0l0.5,1.3h2.1L130.1,173.3z M128.1,178.1l1.1-3l1.1,3H128.1z"/>
	<g>
		<rect x="136.4" y="173.3" class="st3" width="1.9" height="7.3"/>
		<rect x="138.3" y="179.6" class="st3" width="3.4" height="0.9"/>
	</g>
</g>
</svg>
