<?xml version="1.0" encoding="utf-8"?>
<!-- Generator: Adobe Illustrator 25.2.0, SVG Export Plug-In . SVG Version: 6.00 Build 0)  -->
<svg version="1.1" id="Laag_1" xmlns="http://www.w3.org/2000/svg" xmlns:xlink="http://www.w3.org/1999/xlink" x="0px" y="0px"
	 viewBox="0 0 283.5 283.5" style="enable-background:new 0 0 283.5 283.5;" xml:space="preserve">
<style type="text/css">
	.st0{fill:#651411;}
	.st1{fill:#BE1926;}
	.st2{fill:#FFFFFF;}
</style>
<g>
	<path class="st0" d="M219.8,49l-68.5-3.5c-6.4-0.3-12.9-0.3-19.3,0L63.6,49c-1.3,0.1-2.3,1.1-2.3,2.4v143.5c0,1.7,0.9,3.3,2.4,4.1
		l69.6,37.1c5.2,2.8,11.5,2.8,16.7,0l69.6-37.1c1.5-0.8,2.4-2.4,2.4-4.1V51.4C222.1,50.1,221.1,49,219.8,49z"/>
	<path class="st1" d="M214.4,56.2l-63.6-4.3c-6.1-0.3-12.1-0.3-18.2,0L69,56.2c-1.2,0.1-2.1,1.1-2.1,2.3v130.8
		c0,1.6,0.9,3.1,2.3,3.9l64.7,35.6c4.9,2.6,10.9,2.6,15.8,0l64.7-35.6c1.4-0.8,2.3-2.3,2.3-3.9V58.5
		C216.6,57.3,215.6,56.3,214.4,56.2z"/>
	<path class="st2" d="M208.4,102.2L150.8,98c-6.1-0.3-12.1-0.3-18.2,0L75,102.2c-1.2,0.1-2.1,1.1-2.1,2.3v79.8
		c0,1.6,0.9,3.1,2.3,3.9l58.6,33.6c4.9,2.6,10.9,2.6,15.8,0l58.6-33.6c1.4-0.8,2.3-2.3,2.3-3.9v-79.8
		C210.6,103.3,209.6,102.3,208.4,102.2z"/>
</g>
<g>
	<path class="st1" d="M127.9,163.8c-1,0-1.9,0.1-2.8,0.2v7.7c0,4.2-3.4,7.6-7.6,7.6v0v1.5h7.6h5.3h7.6v-1.5v0
		c-4.2,0-7.6-3.4-7.6-7.6V164C129.5,163.9,128.7,163.8,127.9,163.8z"/>
	<path class="st1" d="M125,126.7v30.4c1.1-0.1,2.2-0.2,3.3-0.2c0.7,0,1.3,0,2,0.1v-30.3l22.2,2.9l-1.6-7.2c-9.2,2.3-20.4,2.5-32.6,0
		l-1.8,7.2C116.5,129.6,122.7,126.5,125,126.7z"/>
</g>
<path class="st1" d="M127.9,193.7c-10,0-18.1-6.9-18.1-15.5s8.1-15.5,18.1-15.5c5.6,0,10.6,2.2,13.9,5.6c0.5-2.2,1.1-4.1,1.8-5.6
	c-4.2-2.6-9.6-4.2-15.4-4.2c-13.8,0-25,8.9-25,19.9s11.2,19.9,25,19.9c5.8,0,11.1-1.6,15.4-4.2c-0.8-1.6-1.4-3.6-1.9-5.9
	C138.5,191.6,133.5,193.7,127.9,193.7z"/>
<path class="st1" d="M149.5,111.5L149.5,111.5C149.5,111.5,149.4,111.5,149.5,111.5c-0.2,0-0.4,0-0.6,0c-2.3,0-28.2,0.5-36.3-1.1
	l-1.8,7.2l7.7-1.6c4.1-0.9,8-1.7,12.2-1.6c0,0,9.9-0.2,18.8,0.7s14.3,8.4,14.3,15.9c0,9.1-9,15.8-20.1,15.8c-3.4,0-9.8,0-9.8,0
	c3.9,3,5.1,4.3,15,3.6c12.3-1,22.3-8.7,22.3-19.4C171.1,120.4,161.5,111.8,149.5,111.5z"/>
<path class="st1" d="M130.3,150.7c20.9,7.4,32.6,42,39.8,45.5c3.5,2.8,14.1,1.5,14.1,1.5v-2.1c-21.8-1.3-13.2-20.4-42.9-48.9h-11
	V150.7z"/>
<g>
	<path class="st2" d="M87.2,77.2c0,1.7,0.2,2.8,0.5,3.4s0.9,0.9,1.8,1c0.4,0,0.6,0.2,0.6,0.4c0,0.3-0.2,0.4-0.5,0.4
		c-0.1,0-0.3,0-0.5,0c-0.8-0.1-1.5-0.1-2.2-0.1c-0.6,0-1.1,0-1.6,0.1l-1.1,0.1l-0.9,0.1c-0.2,0-0.4,0-0.5,0c-0.3,0-0.5-0.1-0.5-0.4
		c0-0.2,0.1-0.3,0.3-0.4c0.6-0.2,1-0.4,1.3-0.8s0.3-0.8,0.3-1.4v-1.3l0-0.5v-9.6c0-1.1-0.1-1.8-0.4-2.1c-0.4-0.6-1.1-1-2.1-1.1
		c-0.4-0.1-0.5-0.2-0.5-0.5s0.1-0.4,0.4-0.4c0.1,0,0.3,0,0.5,0c0.7,0.1,1.4,0.1,2.3,0.1c0.9,0,2,0,3.3-0.1C88.9,64,90,64,90.5,64
		c1.7,0,3.1,0.5,4.2,1.4c1.1,0.9,1.7,2.1,1.7,3.5c0,0.9-0.2,1.7-0.7,2.4s-1.2,1.3-2,1.6c-0.2,0.1-0.3,0.2-0.3,0.3
		c0,0.1,0.1,0.2,0.1,0.3c0.1,0.1,0.2,0.3,0.4,0.6l1.2,2.1l1.4,2.4c0.5,0.8,0.9,1.4,1.3,1.7c0.4,0.3,0.8,0.5,1.3,0.5
		c0.2,0,0.4,0,0.6-0.1c0.1,0,0.2,0,0.3,0c0.2,0,0.2,0.1,0.2,0.3c0,0.3-0.4,0.6-1.1,0.9s-1.4,0.5-1.9,0.5c-0.9,0-1.8-0.4-2.5-1.3
		c-0.8-0.9-1.8-2.6-3-5.1c-0.5-1-0.9-1.6-1.2-1.9c-0.3-0.3-0.8-0.4-1.5-0.4H88l-0.6,0.1c-0.1,0.1-0.2,0.3-0.2,0.6V77.2z M87.2,66.8
		v4.6c0,0.6,0.1,0.9,0.2,1.1s0.5,0.2,1.1,0.2c1.6,0,2.6,0,3-0.1c0.4-0.1,0.7-0.2,1.1-0.5c0.7-0.6,1-1.4,1-2.4c0-1.3-0.4-2.5-1.3-3.3
		c-0.9-0.9-2-1.3-3.4-1.3c-0.6,0-1,0.1-1.3,0.4C87.3,65.6,87.2,66.1,87.2,66.8z"/>
	<path class="st2" d="M109.9,63.8c2.8,0,5,0.8,6.7,2.4c1.7,1.6,2.6,3.7,2.6,6.4c0,2.9-0.9,5.3-2.6,7.3c-1.7,1.9-4.1,2.9-7.1,2.9
		c-2.9,0-5.2-0.8-6.9-2.5c-1.7-1.7-2.6-3.9-2.6-6.8c0-1.2,0.2-2.4,0.7-3.6c0.4-1.2,1-2.2,1.8-3c0.9-1,2-1.7,3.3-2.2
		S108.4,63.8,109.9,63.8z M108.9,64.8c-1.8,0-3.2,0.7-4.2,2c-1,1.3-1.5,3.2-1.5,5.5c0,2.8,0.6,5.1,1.9,6.8c1.3,1.7,2.9,2.6,4.9,2.6
		c1.8,0,3.3-0.7,4.4-2.2c1.1-1.4,1.6-3.4,1.6-5.8c0-1.4-0.3-2.8-0.8-4.1c-0.5-1.3-1.2-2.4-2-3.2C112.1,65.3,110.6,64.8,108.9,64.8z"
		/>
	<path class="st2" d="M126.2,64.9l5.5,12c0.2,0.5,0.4,0.8,0.6,0.8c0.2,0,0.3-0.2,0.5-0.5l5-10.7c0.5-1,0.8-1.7,1-1.9
		c0.2-0.3,0.5-0.4,0.8-0.4c0.1,0,0.3,0,0.6,0c0.3,0,0.5,0,0.8,0c0.4,0,0.8,0,1.4-0.1c0.3,0,0.5,0,0.6,0c0.3,0,0.5,0.1,0.5,0.4
		c0,0.2-0.1,0.3-0.4,0.3c-0.8,0.1-1.4,0.3-1.8,0.8s-0.5,1.3-0.5,2.5l0,0.9l0.3,8.3l0,0.5c0,1.2,0.2,2.1,0.6,2.7
		c0.4,0.6,1.1,0.9,2.1,1c0.2,0,0.4,0.2,0.4,0.4c0,0.2-0.3,0.4-0.9,0.4c-0.2,0-0.5,0-0.9-0.1c-1.1-0.1-1.9-0.2-2.3-0.2
		c-0.9,0-1.7,0-2.3,0.1c-0.6,0.1-1,0.1-1.2,0.1c-0.2,0-0.3-0.1-0.3-0.3c0-0.2,0.1-0.3,0.4-0.4c0.5-0.1,0.9-0.4,1.1-0.7
		c0.2-0.3,0.3-0.8,0.3-1.4c0-0.3,0-0.5,0-0.6l-0.4-8.9c0-0.2-0.1-0.4-0.2-0.4c-0.1,0-0.3,0.2-0.5,0.7l-5,10.7l-0.2,0.4
		c-0.3,0.6-0.5,0.8-0.6,0.8c-0.2,0-0.5-0.5-1-1.5l-0.7-1.4l-4.3-9.5l-0.1-0.2c0-0.1-0.1-0.1-0.2-0.1c-0.1,0-0.2,0.2-0.2,0.5l0,0.4
		l-0.2,6.7l0,0.5l0.1,1.3c0.2,1.3,0.9,2.1,2.1,2.4c0.4,0.1,0.6,0.3,0.6,0.5c0,0.2-0.2,0.4-0.5,0.4c-0.2,0-0.5,0-0.9-0.1l-1-0.1
		c-0.2,0-0.6-0.1-1-0.1c-0.8,0-1.4,0-1.9,0.1c-0.3,0.1-0.5,0.1-0.7,0.1c-0.3,0-0.4-0.1-0.4-0.4c0-0.2,0.1-0.3,0.3-0.4
		c0.7-0.2,1.2-0.6,1.5-1.2c0.3-0.6,0.5-1.4,0.5-2.5l0.4-8.8l0-0.9c0-1.1-0.3-1.9-0.8-2.5c-0.5-0.6-1.2-0.9-2.1-0.9
		c-0.3,0-0.5-0.1-0.5-0.4c0-0.3,0.2-0.4,0.6-0.4c0.1,0,0.2,0,0.3,0l0.8,0.1c0.1,0,0.3,0,0.5,0c0.4,0,0.8,0,1.2-0.1
		c0.6-0.1,1-0.1,1.2-0.1C125.5,64.1,125.9,64.4,126.2,64.9z"/>
	<path class="st2" d="M154.6,65.6l6.1,13.9c0.3,0.7,0.7,1.2,1.1,1.6c0.4,0.3,0.9,0.6,1.6,0.7c0.2,0,0.2,0.2,0.2,0.4
		c0,0.2-0.1,0.4-0.3,0.4c-0.1,0-0.3,0-0.5-0.1c-0.7-0.2-1.8-0.2-3.3-0.2c-1.5,0-2.6,0.1-3.1,0.2c-0.1,0-0.3,0.1-0.3,0.1
		c-0.3,0-0.4-0.1-0.4-0.4c0-0.1,0.1-0.2,0.3-0.3c0.4-0.1,0.8-0.3,1.1-0.7c0.3-0.3,0.4-0.7,0.4-1c0-0.5-0.4-1.6-1.2-3.3
		c-0.2-0.5-0.5-0.8-0.8-0.9s-1.3-0.1-3.1-0.1h-1.8l-1.2,0.2c-0.3,0.2-0.7,0.7-1.1,1.8l-0.4,1c-0.1,0.3-0.2,0.6-0.2,0.9
		c0,1.1,0.8,1.8,2.4,1.9c0.3,0,0.5,0.2,0.5,0.4c0,0.2-0.2,0.4-0.5,0.4c-0.2,0-0.4,0-0.7-0.1c-0.6-0.1-1.1-0.2-1.6-0.2
		c-0.4,0-1.1,0-2,0.1c-0.7,0.1-1.1,0.1-1.3,0.1c-0.2,0-0.4-0.1-0.4-0.3c0-0.2,0.1-0.3,0.4-0.4c0.5-0.2,0.9-0.4,1.2-0.8
		c0.3-0.4,0.7-1.3,1.3-2.6l3.6-8.4c0.3-0.7,0.5-1.1,0.6-1.4l1.2-2.5l0.6-1.3v0c0.3-0.7,0.5-1,0.6-1c0.1,0,0.4,0.4,0.7,1.1
		L154.6,65.6z M155.1,74l-1.7-4.1c-0.4-1-0.7-1.5-0.9-1.5c-0.1,0-0.3,0.3-0.6,0.9l-0.3,0.6l-1.6,3.6l-0.1,0.3
		c-0.1,0.1-0.1,0.2-0.1,0.3c0,0.3,0.3,0.5,1,0.5h3.9c0.3,0,0.5-0.1,0.5-0.3c0,0,0-0.1-0.1-0.2L155.1,74z"/>
	<path class="st2" d="M176.4,70.8c0,0.5,0.1,0.8,0.2,1c0.1,0.2,0.4,0.3,0.8,0.3l0.5,0l1.5,0c0.7,0,1.2-0.1,1.5-0.4
		c0.3-0.3,0.7-0.8,1-1.7c0.1-0.2,0.2-0.3,0.3-0.3c0.3,0,0.4,0.1,0.4,0.3c0,0.1,0,0.2,0,0.3c0,0.1,0,0.3,0,0.4c0,0.5,0,1.1,0.1,1.8
		l0.2,2.5c0,0.3,0,0.5,0,0.6c0,0.2-0.1,0.3-0.4,0.3c-0.2,0-0.3-0.1-0.3-0.4c-0.2-0.9-0.5-1.6-0.9-1.9c-0.4-0.3-1.1-0.5-2.2-0.5
		c-1.3,0-2.1,0.1-2.3,0.3c-0.2,0.2-0.3,0.8-0.3,1.9l0,1.1V78c0,1.3,0.2,2.3,0.7,2.9c0.3,0.4,1,0.7,2,0.8c0.3,0,0.4,0.1,0.4,0.4
		c0,0.2-0.1,0.4-0.3,0.4c-0.2,0-0.4,0-0.8-0.1c-0.3,0-1-0.1-1.9-0.1H175c-0.7,0-1.2,0-1.7,0.1c-0.6,0.1-1.1,0.1-1.3,0.1
		c-0.3,0-0.4-0.1-0.4-0.4c0-0.2,0.1-0.3,0.4-0.4c0.5-0.2,0.9-0.5,1.1-0.9c0.2-0.4,0.3-1.2,0.3-2.3v-11c0-1.1-0.2-1.8-0.6-2.2
		c-0.4-0.4-1.1-0.6-2-0.7c-0.2,0-0.3-0.1-0.3-0.3c0-0.3,0.2-0.4,0.5-0.4c0.1,0,0.3,0,0.7,0c0.5,0,1.1,0.1,1.7,0.1l2.3,0l3.5,0
		c1.2,0,2.4-0.1,3.7-0.2c0.5,0,0.8-0.1,1-0.1c0.2,0,0.3,0.2,0.4,0.7c0,0.6,0.1,0.9,0.1,1l0.1,1c0,0.2,0,0.4,0,0.5
		c0,0.7-0.2,1.1-0.5,1.1c-0.2,0-0.3-0.1-0.3-0.4v-0.5c0-0.2,0-0.3-0.1-0.5c-0.4-1.2-1.5-1.8-3.5-1.8l-1.7,0l-0.5,0
		c-0.5,0-0.9,0.1-1.1,0.3c-0.2,0.2-0.3,0.5-0.3,1V70.8z"/>
	<path class="st2" d="M195,63.8c1.7,0,3.1,0.4,4.4,1.1l0.9,0.5c0.2,0.1,0.3,0.2,0.5,0.2c0.2,0,0.3-0.1,0.4-0.2l0.3-0.4
		c0-0.1,0.1-0.1,0.2-0.1c0.3,0,0.4,0.3,0.4,0.9l0,1v1.2l0.1,1l0.1,0.6c0.1,0.3,0.1,0.6,0.1,0.8c0,0.3-0.1,0.5-0.4,0.5
		c-0.1,0-0.2-0.1-0.3-0.3c-0.1-0.3-0.3-0.9-0.7-1.6c-0.4-0.7-0.8-1.3-1.2-1.7c-1.6-1.7-3.3-2.5-5.2-2.5c-1.7,0-3.1,0.7-4.1,2.1
		c-1.1,1.4-1.6,3.2-1.6,5.4c0,2.9,0.9,5.2,2.6,6.9c1.3,1.3,2.7,1.9,4.2,1.9c0.9,0,1.9-0.2,2.9-0.6c1-0.4,1.8-1,2.4-1.6l0.9-0.9
		c0.1-0.1,0.2-0.2,0.4-0.2c0.2,0,0.3,0.1,0.3,0.3c0,0.4-0.4,0.9-1.1,1.7c-1.8,2.1-4.1,3.1-6.8,3.1c-2.6,0-4.7-0.8-6.4-2.5
		s-2.5-3.9-2.5-6.5c0-1.5,0.3-2.9,0.9-4.3c0.6-1.4,1.4-2.6,2.5-3.4C190.8,64.5,192.7,63.8,195,63.8z"/>
</g>
</svg>
